<?xml version="1.0" encoding="UTF-8" standalone="no"?>
<!DOCTYPE svg PUBLIC "-//W3C//DTD SVG 1.1//EN" "http://www.w3.org/Graphics/SVG/1.1/DTD/svg11.dtd">
<svg width="100%" height="100%" viewBox="0 0 422 105" version="1.1" xmlns="http://www.w3.org/2000/svg" xmlns:xlink="http://www.w3.org/1999/xlink" xml:space="preserve" xmlns:serif="http://www.serif.com/" style="fill-rule:evenodd;clip-rule:evenodd;stroke-linejoin:round;stroke-miterlimit:2;">
    <g transform="matrix(3.85759,0,0,4.15659,-158.556,-31.806)">
        <g transform="matrix(1.94982,0,0,1.80956,-166.649,-123.047)">
            <path d="M112.895,79.176C112.895,77.776 113.249,76.682 113.957,75.894C114.665,75.106 115.667,74.712 116.963,74.712C118.259,74.712 119.237,75.086 119.897,75.834C120.557,76.582 120.887,77.644 120.887,79.02C120.887,81.636 119.751,83.048 117.479,83.256L117.479,83.34C117.935,83.388 118.273,83.512 118.493,83.712C118.713,83.912 118.879,84.178 118.991,84.51C119.103,84.842 119.203,85.068 119.291,85.188C119.379,85.308 119.511,85.368 119.687,85.368C119.991,85.368 120.171,85.048 120.227,84.408L120.491,84.432C120.475,84.96 120.311,85.364 119.999,85.644C119.687,85.924 119.253,86.064 118.697,86.064C118.141,86.064 117.711,85.926 117.407,85.65C117.103,85.374 116.871,84.968 116.711,84.432C116.607,84.104 116.519,83.892 116.447,83.796C116.375,83.7 116.283,83.652 116.171,83.652C115.947,83.652 115.651,83.816 115.283,84.144L115.115,83.952C115.435,83.632 115.799,83.436 116.207,83.364L116.207,83.292C115.119,83.18 114.295,82.768 113.735,82.056C113.175,81.344 112.895,80.384 112.895,79.176ZM118.415,79.536L118.415,78.648C118.415,77.184 118.343,76.26 118.199,75.876C118.039,75.436 117.811,75.164 117.515,75.06C117.347,74.996 117.143,74.964 116.903,74.964C116.663,74.964 116.457,74.996 116.285,75.06C116.113,75.124 115.971,75.236 115.859,75.396C115.747,75.556 115.657,75.724 115.589,75.9C115.521,76.076 115.467,76.324 115.427,76.644C115.379,77.108 115.355,77.792 115.355,78.696L115.355,79.56C115.355,80.536 115.393,81.23 115.469,81.642C115.545,82.054 115.639,82.348 115.751,82.524C115.999,82.916 116.383,83.112 116.903,83.112C117.535,83.112 117.945,82.846 118.133,82.314C118.321,81.782 118.415,80.856 118.415,79.536Z" style="fill:white;fill-rule:nonzero;"/>
            <path d="M128.399,83.244L125.663,83.244L125.531,82.368C125.403,82.688 125.213,82.934 124.961,83.106C124.709,83.278 124.335,83.364 123.839,83.364C122.599,83.364 121.979,82.696 121.979,81.36L121.979,77.748L121.307,77.748L121.307,77.532L124.211,77.532L124.211,81.648C124.211,82.128 124.245,82.444 124.313,82.596C124.381,82.748 124.517,82.824 124.721,82.824C124.925,82.824 125.107,82.7 125.267,82.452C125.427,82.204 125.507,81.86 125.507,81.42L125.507,77.748L124.955,77.748L124.955,77.532L127.739,77.532L127.739,83.028L128.399,83.028L128.399,83.244Z" style="fill:white;fill-rule:nonzero;"/>
            <path d="M130.403,76.704C129.979,76.704 129.677,76.596 129.497,76.38C129.317,76.164 129.227,75.896 129.227,75.576C129.227,75.256 129.325,74.992 129.521,74.784C129.717,74.576 130.015,74.472 130.415,74.472C130.815,74.472 131.119,74.566 131.327,74.754C131.535,74.942 131.639,75.21 131.639,75.558C131.639,75.906 131.539,76.184 131.339,76.392C131.139,76.6 130.827,76.704 130.403,76.704ZM128.591,77.532L131.531,77.532L131.531,83.028L132.203,83.028L132.203,83.244L128.639,83.244L128.639,83.028L129.299,83.028L129.299,77.748L128.591,77.748L128.591,77.532Z" style="fill:white;fill-rule:nonzero;"/>
            <path d="M132.395,74.244L135.335,74.244L135.335,83.028L136.007,83.028L136.007,83.244L132.443,83.244L132.443,83.028L133.103,83.028L133.103,74.46L132.395,74.46L132.395,74.244Z" style="fill:white;fill-rule:nonzero;"/>
            <path d="M140.111,80.88L140.111,79.86C140.111,79.084 140.069,78.518 139.985,78.162C139.901,77.806 139.707,77.628 139.403,77.628C139.227,77.628 139.085,77.678 138.977,77.778C138.869,77.878 138.791,78.044 138.743,78.276C138.671,78.636 138.635,79.184 138.635,79.92L138.635,80.856C138.635,81.728 138.661,82.252 138.713,82.428C138.765,82.604 138.819,82.748 138.875,82.86C138.963,83.052 139.135,83.148 139.391,83.148C139.703,83.148 139.907,82.968 140.003,82.608C140.075,82.352 140.111,81.776 140.111,80.88ZM139.367,83.364C138.367,83.364 137.611,83.108 137.099,82.596C136.587,82.084 136.331,81.35 136.331,80.394C136.331,79.438 136.605,78.702 137.153,78.186C137.701,77.67 138.471,77.412 139.463,77.412C140.455,77.412 141.195,77.65 141.683,78.126C142.171,78.602 142.415,79.328 142.415,80.304C142.415,82.344 141.399,83.364 139.367,83.364Z" style="fill:white;fill-rule:nonzero;"/>
            <path d="M142.775,77.532L145.667,77.532L145.667,78.636C145.795,78.268 145.991,77.972 146.255,77.748C146.519,77.524 146.919,77.412 147.455,77.412C148.695,77.412 149.315,78.08 149.315,79.416L149.315,83.028L149.987,83.028L149.987,83.244L146.591,83.244L146.591,83.028L147.083,83.028L147.083,79.128C147.083,78.648 147.051,78.338 146.987,78.198C146.923,78.058 146.807,77.988 146.639,77.988C146.383,77.988 146.157,78.156 145.961,78.492C145.765,78.828 145.667,79.236 145.667,79.716L145.667,83.028L146.183,83.028L146.183,83.244L142.775,83.244L142.775,83.028L143.435,83.028L143.435,77.748L142.775,77.748L142.775,77.532Z" style="fill:white;fill-rule:nonzero;"/>
            <path d="M153.299,83.364C152.267,83.364 151.493,83.098 150.977,82.566C150.461,82.034 150.203,81.294 150.203,80.346C150.203,79.398 150.493,78.672 151.073,78.168C151.653,77.664 152.391,77.412 153.287,77.412C155.103,77.412 155.975,78.324 155.903,80.148L152.519,80.148L152.519,80.616C152.519,81.4 152.619,81.992 152.819,82.392C153.019,82.792 153.367,82.992 153.863,82.992C154.791,82.992 155.399,82.496 155.687,81.504L155.903,81.54C155.751,82.116 155.477,82.564 155.081,82.884C154.685,83.204 154.091,83.364 153.299,83.364ZM152.531,79.908L153.767,79.908L153.767,79.32C153.767,78.672 153.729,78.23 153.653,77.994C153.577,77.758 153.425,77.64 153.197,77.64C152.969,77.64 152.801,77.766 152.693,78.018C152.585,78.27 152.531,78.704 152.531,79.32L152.531,79.908Z" style="fill:white;fill-rule:nonzero;"/>
            <path d="M160.343,77.868C160.047,77.868 159.787,78.06 159.563,78.444C159.339,78.828 159.227,79.284 159.227,79.812L159.227,83.028L160.079,83.028L160.079,83.244L156.335,83.244L156.335,83.028L156.995,83.028L156.995,77.748L156.335,77.748L156.335,77.532L159.227,77.532L159.227,78.684C159.331,78.276 159.531,77.962 159.827,77.742C160.123,77.522 160.459,77.412 160.835,77.412C161.211,77.412 161.517,77.518 161.753,77.73C161.989,77.942 162.107,78.242 162.107,78.63C162.107,79.018 162.019,79.316 161.843,79.524C161.667,79.732 161.397,79.836 161.033,79.836C160.669,79.836 160.401,79.716 160.229,79.476C160.057,79.236 160.035,78.904 160.163,78.48L160.595,78.48C160.795,78.072 160.711,77.868 160.343,77.868Z" style="fill:white;fill-rule:nonzero;"/>
        </g>
        <g transform="matrix(0.65491,0,0,0.6078,41.0538,-7.80419)">
            <path d="M52.671,29.805L52.791,32.817L52.563,32.817C52.211,31.753 51.899,31.027 51.627,30.639C51.355,30.251 50.963,30.057 50.451,30.057L50.307,30.057L50.307,37.953L51.327,37.953L51.327,38.205L46.947,38.205L46.947,37.953L47.967,37.953L47.967,30.057L47.811,30.057C47.299,30.057 46.903,30.259 46.623,30.663C46.343,31.067 46.035,31.785 45.699,32.817L45.471,32.817L45.591,29.805L52.671,29.805Z" style="fill:white;fill-rule:nonzero;"/>
            <path d="M53.355,29.205L56.247,29.205L56.247,33.597C56.375,33.229 56.571,32.933 56.835,32.709C57.099,32.485 57.499,32.373 58.035,32.373C59.275,32.373 59.895,33.041 59.895,34.377L59.895,37.989L60.567,37.989L60.567,38.205L57.171,38.205L57.171,37.989L57.663,37.989L57.663,34.089C57.663,33.609 57.631,33.299 57.567,33.159C57.503,33.019 57.387,32.949 57.219,32.949C56.963,32.949 56.737,33.117 56.541,33.453C56.345,33.789 56.247,34.197 56.247,34.677L56.247,37.989L56.763,37.989L56.763,38.205L53.355,38.205L53.355,37.989L54.015,37.989L54.015,29.421L53.355,29.421L53.355,29.205Z" style="fill:white;fill-rule:nonzero;"/>
            <path d="M63.903,38.325C62.871,38.325 62.097,38.059 61.581,37.527C61.065,36.995 60.807,36.255 60.807,35.307C60.807,34.359 61.097,33.633 61.677,33.129C62.257,32.625 62.995,32.373 63.891,32.373C65.707,32.373 66.579,33.285 66.507,35.109L63.123,35.109L63.123,35.577C63.123,36.361 63.223,36.953 63.423,37.353C63.623,37.753 63.971,37.953 64.467,37.953C65.395,37.953 66.003,37.457 66.291,36.465L66.507,36.501C66.355,37.077 66.081,37.525 65.685,37.845C65.289,38.165 64.695,38.325 63.903,38.325ZM63.135,34.869L64.371,34.869L64.371,34.281C64.371,33.633 64.333,33.191 64.257,32.955C64.181,32.719 64.029,32.601 63.801,32.601C63.573,32.601 63.405,32.727 63.297,32.979C63.189,33.231 63.135,33.665 63.135,34.281L63.135,34.869Z" style="fill:white;fill-rule:nonzero;"/>
        </g>
    </g>
</svg>
